<svg width="29" height="28" viewBox="0 0 29 28" fill="none" xmlns="http://www.w3.org/2000/svg">
<rect width="28" height="27" rx="4" transform="matrix(1 0 0 -1 0.267212 27.0299)" fill="#7367F0" fill-opacity="0.16"/>
<path d="M25.6705 7.37141L25.5171 7.35618C22.237 7.05805 19.0816 7.82839 17.2733 10.4832C16.9238 10.9957 16.1843 12.519 16.1855 13.076V17.0278L18.5942 17.0213L14.2369 23.2493L9.96284 17.0213L12.3977 17.0278L12.3822 13.4068C12.3812 12.6678 12.2169 11.6626 11.5277 10.837C9.94476 8.94079 6.77412 7.32855 4.88152 7.33006L2.86398 7.37794L2.85803 3.89619H2.86279C8.29483 3.76998 12.0042 5.08869 14.3344 8.3463C16.8311 4.97009 21.167 3.47838 25.5647 3.87225L25.6764 3.88205C25.6764 3.91251 25.6693 7.37141 25.6693 7.37141H25.6705Z" fill="#8279C2"/>
</svg>
