<svg width="21" height="23" viewBox="0 0 21 23" fill="none" xmlns="http://www.w3.org/2000/svg">
<path d="M5.24506 0.864152C5.24506 0.864152 7.70153 -0.0410665 10.9007 0.545268C11.1395 0.586415 11.3732 0.632705 11.6121 0.673851C12.4431 0.81272 14.8113 1.34762 15.7461 3.04491C15.7876 3.12206 15.8292 3.19406 15.8759 3.27121C16.3381 4.01699 16.9406 4.93764 17.8338 5.48283C18.7738 6.05373 19.6255 7.05153 20.176 8.21906C20.1189 8.10076 19.854 7.97218 19.7502 7.90531C19.3659 7.64301 18.9608 7.4167 18.5453 7.21611C17.2781 6.60921 15.9071 6.32118 14.4997 6.38804C13.3312 6.44462 12.1367 6.70693 11.1967 7.43213C10.1476 8.23963 9.65943 9.57688 9.90352 10.873C9.95026 11.1147 10.023 11.3719 10.1268 11.6393C10.1268 11.6393 8.62595 10.4204 9.53998 8.31164C9.63866 8.09047 9.75811 7.8796 9.89313 7.67387C10.3294 7.01553 11.098 6.12059 12.9261 6.04859C13.4662 6.0023 13.9544 5.85829 14.5931 5.44168C14.884 5.25138 15.2215 5.14337 15.5747 5.12794C15.8084 5.11765 16.0317 5.11765 16.1356 5.13308C16.2966 5.15366 16.6809 5.14851 16.8782 5.14851C16.9665 5.14851 17.0185 5.05079 16.9665 4.97878C16.899 4.88106 16.7276 4.75762 16.2966 4.67019C16.0629 4.6239 15.8396 4.53646 15.637 4.40274C15.315 4.19186 14.9047 3.85755 14.536 3.49752C14.2244 3.24035 13.2792 2.39685 10.48 2.55115C10.48 2.55115 10.7656 2.91632 11.3421 3.27635C11.3421 3.27635 11.7212 3.55924 11.903 3.79583C11.0565 3.39465 10.1424 3.08091 9.22319 2.88547C7.78462 2.57687 6.22661 2.75688 4.8244 3.16835C2.98075 3.70839 1.3708 4.8862 0.42041 6.55777C0.42041 6.55777 2.56528 0.956731 9.02065 1.46592C9.02584 1.46077 8.18971 0.658421 5.24506 0.864152Z" fill="url(#paint0_linear_45_848)"/>
<path d="M8.63647 9.89575C8.70399 10.5438 9.0052 11.2793 9.40509 11.7936C9.82576 12.3337 10.4074 12.7194 10.9787 13.0743C11.3734 13.316 11.8044 13.5063 12.2459 13.6606C13.4196 14.067 14.6816 14.1441 15.9176 14.0515C16.546 14.0052 17.1744 13.9127 17.7924 13.7892C18.1404 13.7224 18.4883 13.6401 18.8363 13.5526C19.0284 13.5063 19.2154 13.4549 19.4023 13.4035C19.5685 13.3572 19.8178 13.3315 19.9632 13.244C19.9632 13.244 18.4623 14.1801 17.299 15.1625C16.9095 15.4916 16.4317 15.7025 15.9228 15.7642C15.1594 15.862 14.1259 15.862 13.2378 15.6408C11.5811 15.2242 10.1893 14.2624 9.41029 12.7246C9.31161 12.5343 9.22333 12.3337 9.14543 12.1331C8.87018 11.4182 8.71438 10.657 8.63647 9.89575Z" fill="url(#paint1_linear_45_848)"/>
<path d="M8.64681 7.55542C7.33808 9.03669 6.94339 11.1969 7.42637 13.1102C8.10151 15.795 10.2879 17.5694 12.7548 18.6392C12.8223 18.6701 12.8898 18.6958 12.9573 18.7266L14.6452 17.2711C14.6452 17.2711 10.9683 16.9316 9.31157 14.3548C9.16615 14.1234 9.04151 13.8817 8.93764 13.6296C8.66759 12.997 8.21057 12.0352 8.05477 10.7854C7.91455 9.66417 8.23134 8.58408 8.64681 7.55542Z" fill="url(#paint2_linear_45_848)"/>
<path d="M11.6226 5.50333C11.4565 5.52905 11.1968 5.42618 11.0254 5.40561C10.5372 5.35932 10.0283 5.36446 9.54529 5.43133C8.53777 5.57534 7.53545 6.1051 6.78241 6.76858C5.57755 7.82296 4.95954 9.35051 4.596 10.8678C4.47655 11.4335 3.21975 17.3998 10.5632 20.7069L11.6226 19.7348C11.5395 19.812 10.5216 19.1536 10.4386 19.1022C9.55048 18.557 8.72993 17.8987 8.02882 17.1323C6.34617 15.2807 5.73854 12.8274 6.19037 10.3997C6.49158 8.77961 7.36407 7.3292 8.80264 6.45998C9.66474 5.94566 10.6411 5.65249 11.6226 5.50333Z" fill="url(#paint3_linear_45_848)"/>
<path d="M2.57556 13.0435C2.57556 13.0435 2.02506 14.1338 2.32109 16.0626C2.47689 16.51 2.80926 18.2793 9.1348 22.0134C9.1348 22.0134 5.1307 19.3028 4.08164 17.5284C3.83236 17.2095 2.43015 14.7922 2.57556 13.0435Z" fill="url(#paint4_linear_45_848)"/>
<path d="M1.84864 15.826C1.59416 15.1419 1.35008 14.4527 1.12157 13.7635C0.358141 11.413 0.799578 8.72309 2.29008 6.73264C2.72632 6.15145 3.24566 5.63712 3.82732 5.19479C3.92599 5.11764 4.01947 5.04049 4.11815 4.96335C4.79848 4.4233 7.75351 2.74659 11.9913 4.269C12.3445 4.39758 12.682 4.5776 12.9729 4.81419C13.1754 4.97878 13.3676 5.16393 13.4039 5.32338C13.4195 5.40052 13.3676 5.47253 13.2897 5.48282C13.0144 5.52396 13.0819 5.27194 12.3548 5.15879C11.6901 5.05592 9.08821 4.32043 7.16147 5.16908C6.29937 5.50853 4.43494 6.24917 3.0587 8.7951C2.79903 9.31457 1.29814 11.6342 1.84864 15.826Z" fill="url(#paint5_linear_45_848)"/>
<path d="M13.352 3.91422C13.3001 3.80107 13.3468 3.67248 13.4559 3.61591C13.6948 3.49247 13.9285 3.61077 14.1362 3.74449C14.2297 3.80621 14.3232 3.87822 14.4167 3.93994C14.505 4.00166 14.614 4.05309 14.64 4.1611C14.7075 4.41826 14.2816 4.41312 14.1258 4.40797C13.7935 4.40283 13.4974 4.21767 13.352 3.91422Z" fill="#8AFEFE"/>
<defs>
<linearGradient id="paint0_linear_45_848" x1="25.4813" y1="19.1512" x2="9.98208" y2="5.97827" gradientUnits="userSpaceOnUse">
<stop stop-color="#5A5B56"/>
<stop offset="1" stop-color="#F5F1E1"/>
</linearGradient>
<linearGradient id="paint1_linear_45_848" x1="24.1852" y1="21.1838" x2="8.05149" y2="7.47171" gradientUnits="userSpaceOnUse">
<stop stop-color="#5A5B56"/>
<stop offset="1" stop-color="#F5F1E1"/>
</linearGradient>
<linearGradient id="paint2_linear_45_848" x1="22.2017" y1="23.01" x2="6.70242" y2="9.83706" gradientUnits="userSpaceOnUse">
<stop stop-color="#5A5B56"/>
<stop offset="1" stop-color="#F5F1E1"/>
</linearGradient>
<linearGradient id="paint3_linear_45_848" x1="22.3573" y1="22.827" x2="6.85806" y2="9.65405" gradientUnits="userSpaceOnUse">
<stop stop-color="#5A5B56"/>
<stop offset="1" stop-color="#F5F1E1"/>
</linearGradient>
<linearGradient id="paint4_linear_45_848" x1="17.9795" y1="27.9777" x2="2.48029" y2="14.8048" gradientUnits="userSpaceOnUse">
<stop stop-color="#5A5B56"/>
<stop offset="1" stop-color="#F5F1E1"/>
</linearGradient>
<linearGradient id="paint5_linear_45_848" x1="22.3812" y1="22.7989" x2="6.88193" y2="9.62596" gradientUnits="userSpaceOnUse">
<stop stop-color="#5A5B56"/>
<stop offset="1" stop-color="#F5F1E1"/>
</linearGradient>
</defs>
</svg>
