<svg width="95" height="13" viewBox="0 0 95 13" fill="none" xmlns="http://www.w3.org/2000/svg">
<path d="M0.5 1.58529H3.84212V10.4611H0.5V1.58529ZM5.16782 7.10978C5.16782 4.91462 7.21765 3.60484 10.3815 3.60484C13.5454 3.60484 15.5952 4.91462 15.5952 7.10978C15.5952 9.30495 13.5899 10.622 10.3815 10.622C7.17309 10.622 5.16782 9.34153 5.16782 7.10978ZM12.242 7.10978C12.242 5.90244 11.5178 5.19268 10.3815 5.19268C9.2452 5.19268 8.53222 5.9244 8.53222 7.10978C8.53222 8.29517 9.23406 9.01226 10.3815 9.01226C11.529 9.01226 12.242 8.33908 12.242 7.1171V7.10978ZM16.8541 10.8928H20.0625C20.2152 11.1156 20.4733 11.3001 20.7985 11.4187C21.1237 11.5374 21.4986 11.5839 21.8673 11.5513C23.1373 11.5513 23.8057 11.0977 23.8057 10.4391V9.20982H23.7388C23.4726 9.58659 23.0405 9.90228 22.4984 10.1162C21.9563 10.3301 21.329 10.4324 20.6975 10.4098C18.2578 10.4098 16.6424 9.18787 16.6424 7.08783C16.6424 4.98779 18.1798 3.66338 20.7421 3.66338C21.3933 3.64661 22.0368 3.76097 22.5864 3.99114C23.1359 4.22131 23.5652 4.55629 23.8168 4.95121V3.72923H27.1589V10.3879C27.1589 11.9904 25.0088 12.9855 21.8338 12.9855C18.8816 12.9855 17.0435 12.1148 16.8541 10.9001V10.8928ZM23.8168 7.10247C23.8168 6.03416 23.0704 5.36097 21.8895 5.36097C20.7087 5.36097 19.9845 6.02684 19.9845 7.10247C19.9845 8.1781 20.6975 8.78543 21.8895 8.78543C23.0816 8.78543 23.8168 8.19273 23.8168 7.10978V7.10247ZM28.4178 7.10247C28.4178 4.90731 30.4676 3.59752 33.6315 3.59752C36.7954 3.59752 38.8563 4.90731 38.8563 7.10247C38.8563 9.29763 36.8511 10.6147 33.6315 10.6147C30.4119 10.6147 28.4178 9.34153 28.4178 7.10978V7.10247ZM35.4919 7.10247C35.4919 5.89513 34.7678 5.18536 33.6315 5.18536C32.4952 5.18536 31.8379 5.9244 31.8379 7.1171C31.8379 8.30981 32.5397 9.01958 33.6761 9.01958C34.8124 9.01958 35.4919 8.33908 35.4919 7.1171V7.10247ZM40.1263 2.13408C40.1176 1.91245 40.2092 1.6941 40.3896 1.50671C40.57 1.31932 40.8311 1.17133 41.1397 1.08151C41.4483 0.99168 41.7905 0.964061 42.1231 1.00215C42.4556 1.04024 42.7634 1.14232 43.0075 1.29545C43.2516 1.44859 43.421 1.64588 43.4942 1.86231C43.5674 2.07875 43.5411 2.30458 43.4186 2.51118C43.2961 2.71779 43.083 2.89586 42.8063 3.02282C42.5296 3.14979 42.2017 3.21993 41.8642 3.22435C41.6405 3.23444 41.416 3.21404 41.2049 3.16443C40.9938 3.11482 40.8005 3.03706 40.6373 2.93605C40.4741 2.83504 40.3445 2.71296 40.2565 2.57746C40.1686 2.44197 40.1243 2.296 40.1263 2.14872V2.13408ZM40.1263 3.74387H43.4685V10.4611H40.1263V3.74387ZM55.6003 7.10247C55.6003 9.29763 54.1187 10.5489 51.5787 10.5489C50.9273 10.5763 50.2789 10.4718 49.721 10.2493C49.1631 10.0268 48.7227 9.69717 48.4593 9.30495H48.3925V12.6123H45.0504V3.72923H48.3925V4.92926H48.4593C48.7105 4.53055 49.1425 4.19234 49.6966 3.9606C50.2508 3.72887 50.9001 3.61487 51.5564 3.63411C54.1187 3.66338 55.6449 4.92194 55.6449 7.1171L55.6003 7.10247ZM52.2582 7.10247C52.2582 6.03416 51.5118 5.35366 50.3421 5.35366C49.1723 5.35366 48.4259 6.04147 48.4148 7.10247C48.4036 8.16346 49.1723 8.84396 50.3421 8.84396C51.5118 8.84396 52.2582 8.1781 52.2582 7.1171V7.10247ZM61.3376 3.59021C64.1116 3.59021 65.7938 4.45364 65.8718 5.83659H62.8304C62.8304 5.36097 62.2289 5.06097 61.3042 5.06097C60.3796 5.06097 59.9674 5.29512 59.9674 5.63903C59.9674 5.98293 60.335 6.09269 61.0814 6.19513L63.2204 6.4805C65.259 6.76587 66.128 7.30735 66.128 8.32444C66.128 9.71471 64.2007 10.6074 61.3599 10.6074C58.5191 10.6074 56.6587 9.71471 56.5138 8.34639H59.7334C59.8337 8.84396 60.4353 9.13665 61.4156 9.13665C62.396 9.13665 62.8416 8.92445 62.8416 8.57323C62.8416 8.222 62.5297 8.14883 61.7275 8.03907L59.8003 7.76833C57.8061 7.4976 56.7589 6.80246 56.7589 5.77805C56.7812 4.46095 58.5748 3.60484 61.3376 3.60484V3.59021ZM77.2795 10.4464H74.0599V9.19519H73.9931C73.8161 9.61529 73.4257 9.98298 72.8867 10.2372C72.3476 10.4914 71.6924 10.6169 71.0298 10.5928C70.522 10.6117 70.0139 10.5589 69.5399 10.4378C69.0659 10.3167 68.637 10.1302 68.2822 9.89091C67.9274 9.6516 67.6548 9.36506 67.4831 9.05063C67.3113 8.73621 67.2443 8.40123 67.2866 8.06834V3.72923H70.6287V7.56345C70.6287 8.36103 71.2526 8.78543 72.2886 8.78543C72.5316 8.78575 72.7718 8.75196 72.9933 8.68632C73.2147 8.62068 73.4122 8.52471 73.5726 8.40483C73.7329 8.28496 73.8524 8.14395 73.923 7.99127C73.9936 7.83859 74.0137 7.67775 73.982 7.51955V3.72923H77.3241L77.2795 10.4464ZM78.8949 3.72923H82.1256V5.02438H82.1924C82.3698 4.60985 82.7514 4.24564 83.2775 3.98877C83.8037 3.73191 84.4446 3.59688 85.1001 3.60484C85.7669 3.56977 86.4294 3.70085 86.9558 3.97202C87.4822 4.24318 87.8338 4.63456 87.9409 5.06828H88.0077C88.2098 4.62994 88.6282 4.24822 89.197 3.98327C89.7658 3.71831 90.4526 3.58518 91.1493 3.60484C91.6038 3.59481 92.0564 3.6477 92.4778 3.76008C92.8991 3.87245 93.2798 4.0418 93.595 4.25711C93.9102 4.47242 94.1529 4.72887 94.3073 5.00982C94.4618 5.29076 94.5245 5.58991 94.4914 5.88781V10.4611H91.1493V6.47319C91.1493 5.74147 90.648 5.40488 89.7122 5.40488C89.5035 5.40372 89.2969 5.43196 89.1062 5.48772C88.9156 5.54347 88.7454 5.62544 88.607 5.72807C88.4687 5.83071 88.3655 5.95164 88.3044 6.0827C88.2433 6.21376 88.2257 6.35191 88.2528 6.48782V10.4611H85.0778V6.44392C85.0778 5.77073 84.5765 5.40488 83.663 5.40488C83.4519 5.40492 83.2433 5.43435 83.0508 5.49124C82.8584 5.54812 82.6865 5.63116 82.5464 5.73488C82.4064 5.8386 82.3015 5.96064 82.2385 6.09295C82.1756 6.22526 82.1561 6.36483 82.1813 6.50246V10.4611H78.8392L78.8949 3.72923Z" fill="#394149"/>
</svg>
