<svg width="78" height="89" viewBox="0 0 78 89" fill="none" xmlns="http://www.w3.org/2000/svg">
<path d="M38.9965 1.5C41.7521 1.50005 43.9252 3.6729 43.9252 6.32715V45.9766C43.925 48.6306 41.7519 50.8027 38.9965 50.8027C36.2409 50.8027 34.0679 48.6307 34.0677 45.9766V6.32715C34.0677 3.67288 36.2408 1.5 38.9965 1.5Z" stroke="#FF5252" stroke-width="3"/>
<path d="M18.2656 21.3772C18.8439 21.4133 19.4102 21.5487 19.9385 21.7766L20.1621 21.8801C20.6789 22.134 21.1447 22.4741 21.5391 22.884L21.7031 23.0637C22.0768 23.4931 22.37 23.9821 22.5703 24.508L22.6504 24.7355C22.8486 25.3477 22.9205 25.9921 22.8613 26.6311C22.8096 27.1901 22.6583 27.7361 22.415 28.2443L22.3047 28.4602C21.9965 29.0283 21.5749 29.5319 21.0635 29.9397L21.0322 29.965C15.1905 34.8879 11.5969 42.0694 11.3672 49.8596L11.3555 50.6154V50.6223L11.3643 51.3293C11.7458 66.1285 23.9203 77.8428 38.998 77.843C54.0776 77.843 66.2537 66.1267 66.6328 51.3254L66.6416 50.6184V50.6154C66.6298 42.5351 62.9952 35.0468 56.9648 29.965L56.957 29.9582L56.9482 29.9514L56.665 29.7004C56.119 29.1778 55.7053 28.5393 55.4551 27.8361L55.3438 27.4797C55.1166 26.6367 55.1279 25.7513 55.3721 24.9172L55.4912 24.5627C55.8023 23.7447 56.3336 23.0242 57.0293 22.4787L57.3379 22.2561C58.1711 21.7009 59.159 21.4093 60.1689 21.4211L60.2227 21.423C61.3905 21.4489 62.5081 21.88 63.3789 22.635L63.3867 22.6418L63.3955 22.6486C71.3225 29.329 76.1759 39.0773 76.4844 49.59L76.5 50.6096V50.6164C76.4999 70.8893 59.6571 87.5002 39 87.5002C18.3431 87.5002 1.50013 70.8891 1.5 50.6164V50.6096C1.51235 39.7085 6.42059 29.5444 14.6035 22.6506L14.6191 22.6379L14.6348 22.6232C15.0615 22.2431 15.5535 21.9395 16.0879 21.7258L16.3193 21.6398C16.8654 21.4521 17.4406 21.3597 18.0186 21.3674L18.2656 21.3772Z" stroke="#FF5252" stroke-width="3"/>
</svg>
