<svg width="45" height="46" viewBox="0 0 45 46" fill="none" xmlns="http://www.w3.org/2000/svg">
<path d="M15.6027 34.0499C12.6962 32.2716 11.2037 30.1506 10.4197 27.0843L10.4197 27.0427C10.4197 27.0427 22.1018 29.7699 33.247 27.3163L34.2571 27.0843C34.2893 28.6819 32.8452 30.4221 31.7258 31.7073C30.4815 32.9486 30.7524 32.8712 29.0498 34.0836" stroke="#B6AFFF" stroke-width="1.5" stroke-linecap="round" stroke-linejoin="round"/>
<path d="M22.5027 1.93623C34.2229 1.97171 43.6984 11.5209 43.6629 23.2689C43.6272 35.0169 34.0941 44.5086 22.374 44.4731C10.6539 44.4376 1.17835 34.8884 1.21384 23.1404C1.2494 11.3925 10.7826 1.90082 22.5027 1.93623Z" stroke="#B6AFFF" stroke-width="2"/>
<path d="M28.4753 28.717C28.4753 28.717 30.2111 36.6548 26.4274 39.8614C23.538 42.1414 21.2111 41.9541 18.3871 39.8102C14.5796 36.2343 16.064 28.7171 16.064 28.7171" stroke="#B6AFFF" stroke-width="1.5" stroke-linecap="round" stroke-linejoin="round"/>
<path d="M17.7646 14.9941C17.3151 14.5383 17.1915 14.3582 16.7948 14.1032C16.3982 13.8482 15.9423 13.8014 15.4706 13.8336C14.6714 13.8336 14.3718 14.0515 13.9525 14.3823C13.5332 14.7131 13.3619 14.9994 13.2946 15.5263C13.2273 16.0531 13.6035 16.3334 14.0229 16.6642C14.4422 16.995 15.0731 17.2508 15.6813 17.5287L15.7626 17.573C16.1465 17.7494 16.6364 17.8334 17.0557 18.1642C17.4749 18.4949 17.7046 19.0444 17.7046 19.6676C17.7046 20.1959 17.3682 20.6771 16.9489 21.0079C16.5296 21.3387 15.9964 21.4941 15.463 21.4411C14.9913 21.4733 14.5218 21.3528 14.1252 21.0978C13.7285 20.8428 13.2507 20.5796 12.8757 20.1959" stroke="#B6AFFF" stroke-width="2" stroke-linecap="round" stroke-linejoin="round"/>
<path d="M24.2387 32.5954C23.8694 32.2209 23.7679 32.073 23.4421 31.8635C23.1163 31.654 22.7418 31.6156 22.3543 31.6421C21.6977 31.6421 21.4516 31.821 21.1072 32.0928C20.7627 32.3645 20.622 32.5997 20.5668 33.0325C20.5115 33.4653 20.8205 33.6955 21.165 33.9673C21.5094 34.239 22.0277 34.4492 22.5273 34.6774L22.5941 34.7139C22.9095 34.8588 23.3119 34.9277 23.6563 35.1995C24.0007 35.4712 24.1894 35.9225 24.1894 36.4345C24.1894 36.8685 23.9131 37.2637 23.5686 37.5355C23.2241 37.8072 22.7862 37.9349 22.348 37.8913C21.9605 37.9178 21.5748 37.8188 21.249 37.6094C20.9232 37.3999 20.5306 37.1836 20.2227 36.8685" stroke="#B6AFFF" stroke-width="1.5" stroke-linecap="round" stroke-linejoin="round"/>
<path d="M30.9567 14.9941C30.5072 14.5383 30.3836 14.3582 29.987 14.1032C29.5904 13.8482 29.1345 13.8014 28.6628 13.8336C27.8635 13.8336 27.564 14.0515 27.1446 14.3823C26.7253 14.7131 26.554 14.9994 26.4868 15.5263C26.4195 16.0531 26.7957 16.3334 27.215 16.6642C27.6343 16.995 28.2653 17.2508 28.8734 17.5287L28.9547 17.573C29.3386 17.7494 29.8286 17.8334 30.2478 18.1642C30.667 18.4949 30.8968 19.0444 30.8968 19.6676C30.8968 20.1959 30.5604 20.6771 30.141 21.0079C29.7217 21.3387 29.1885 21.4941 28.6552 21.4411C28.1835 21.4733 27.7139 21.3528 27.3173 21.0978C26.9207 20.8428 26.4428 20.5796 26.0679 20.1959" stroke="#B6AFFF" stroke-width="2" stroke-linecap="round" stroke-linejoin="round"/>
<path d="M15.4613 13.6539L15.4412 12.5202" stroke="#B6AFFF" stroke-width="2" stroke-linecap="round" stroke-linejoin="round"/>
<path d="M22.3464 31.4944L22.3298 30.5632" stroke="#B6AFFF" stroke-width="1.5" stroke-linecap="round" stroke-linejoin="round"/>
<path d="M28.6532 13.6539L28.6331 12.5202" stroke="#B6AFFF" stroke-width="2" stroke-linecap="round" stroke-linejoin="round"/>
<path d="M15.4394 22.9398L15.4541 21.5096" stroke="#B6AFFF" stroke-width="2" stroke-linecap="round" stroke-linejoin="round"/>
<path d="M22.3285 39.1224L22.3406 37.9476" stroke="#B6AFFF" stroke-width="1.5" stroke-linecap="round" stroke-linejoin="round"/>
<path d="M28.6313 22.9398L28.646 21.5096" stroke="#B6AFFF" stroke-width="2" stroke-linecap="round" stroke-linejoin="round"/>
</svg>
