<svg width="87" height="19" viewBox="0 0 87 19" fill="none" xmlns="http://www.w3.org/2000/svg">
<g clip-path="url(#clip0_439_1401)">
<path d="M15.01 13.5V7.245H12.72V6.27H18.275V7.245H16.09V13.5H15.01ZM18.9379 13.5V8.33H19.9629V9.39C20.0496 9.13667 20.1696 8.925 20.3229 8.755C20.4796 8.58167 20.6612 8.45167 20.8679 8.365C21.0746 8.275 21.2929 8.23 21.5229 8.23C21.5929 8.23 21.6596 8.235 21.7229 8.245C21.7862 8.25167 21.8362 8.265 21.8729 8.285V9.315C21.8296 9.295 21.7729 9.28167 21.7029 9.275C21.6362 9.26833 21.5779 9.26333 21.5279 9.26C21.3012 9.24333 21.0946 9.255 20.9079 9.295C20.7212 9.335 20.5596 9.40167 20.4229 9.495C20.2896 9.58833 20.1862 9.71 20.1129 9.86C20.0429 10.01 20.0079 10.1867 20.0079 10.39V13.5H18.9379ZM25.0841 13.6C24.5941 13.6 24.1625 13.495 23.7891 13.285C23.4158 13.0717 23.1241 12.7683 22.9141 12.375C22.7075 11.9817 22.6041 11.5133 22.6041 10.97C22.6041 10.4333 22.6991 9.96 22.8891 9.55C23.0791 9.13667 23.3541 8.81333 23.7141 8.58C24.0741 8.34667 24.5075 8.23 25.0141 8.23C25.5108 8.23 25.9308 8.33667 26.2741 8.55C26.6175 8.76333 26.8775 9.06333 27.0541 9.45C27.2308 9.83333 27.3191 10.2867 27.3191 10.81V11.165H23.6791C23.6758 11.475 23.7258 11.7533 23.8291 12C23.9325 12.2433 24.0858 12.4367 24.2891 12.58C24.4958 12.72 24.7525 12.79 25.0591 12.79C25.3691 12.79 25.6358 12.72 25.8591 12.58C26.0858 12.44 26.2341 12.2317 26.3041 11.955H27.2941C27.2341 12.3083 27.0925 12.6083 26.8691 12.855C26.6458 13.1017 26.3775 13.2883 26.0641 13.415C25.7508 13.5383 25.4241 13.6 25.0841 13.6ZM23.6791 10.47H26.2991C26.2991 10.2 26.2525 9.955 26.1591 9.735C26.0658 9.51167 25.9225 9.33667 25.7291 9.21C25.5391 9.08 25.2991 9.015 25.0091 9.015C24.7125 9.015 24.4658 9.08667 24.2691 9.23C24.0725 9.37333 23.9241 9.55667 23.8241 9.78C23.7275 10.0033 23.6791 10.2333 23.6791 10.47ZM28.5375 13.5V8.33H29.5825V9.075C29.6658 8.935 29.7775 8.80333 29.9175 8.68C30.0608 8.55667 30.2358 8.45667 30.4425 8.38C30.6525 8.30333 30.8942 8.265 31.1675 8.265C31.4908 8.265 31.7892 8.33 32.0625 8.46C32.3392 8.58667 32.5608 8.78667 32.7275 9.06C32.8942 9.33 32.9775 9.68 32.9775 10.11V13.5H31.9075V10.225C31.9075 9.855 31.8075 9.58 31.6075 9.4C31.4108 9.22 31.1558 9.13 30.8425 9.13C30.6325 9.13 30.4325 9.165 30.2425 9.235C30.0525 9.305 29.8992 9.41167 29.7825 9.555C29.6658 9.695 29.6075 9.87167 29.6075 10.085V13.5H28.5375ZM36.473 13.6C36.0064 13.6 35.5914 13.4983 35.228 13.295C34.8647 13.0883 34.5797 12.7867 34.373 12.39C34.1664 11.99 34.063 11.505 34.063 10.935C34.063 10.3983 34.158 9.92667 34.348 9.52C34.5414 9.11333 34.818 8.79667 35.178 8.57C35.538 8.34333 35.9697 8.23 36.473 8.23C36.863 8.23 37.208 8.30667 37.508 8.46C37.808 8.61 38.0514 8.82 38.238 9.09C38.428 9.36 38.543 9.675 38.583 10.035H37.653C37.6264 9.865 37.563 9.70667 37.463 9.56C37.363 9.41333 37.2314 9.29667 37.068 9.21C36.9047 9.12 36.7097 9.075 36.483 9.075C36.0664 9.075 35.728 9.22667 35.468 9.53C35.208 9.83333 35.078 10.2983 35.078 10.925C35.078 11.4983 35.1997 11.955 35.443 12.295C35.6864 12.635 36.038 12.805 36.498 12.805C36.7247 12.805 36.9197 12.7583 37.083 12.665C37.2464 12.5717 37.3764 12.4517 37.473 12.305C37.573 12.1583 37.6364 12.0067 37.663 11.85H38.573C38.533 12.1967 38.418 12.5017 38.228 12.765C38.0414 13.0283 37.798 13.2333 37.498 13.38C37.198 13.5267 36.8564 13.6 36.473 13.6ZM39.7387 13.5V6.07H40.7937V9.085C40.877 8.94833 40.9887 8.81833 41.1287 8.695C41.272 8.57167 41.4453 8.47167 41.6487 8.395C41.8553 8.315 42.0953 8.275 42.3687 8.275C42.7053 8.275 43.0087 8.33833 43.2787 8.465C43.552 8.58833 43.7687 8.76833 43.9287 9.005C44.092 9.23833 44.1737 9.51667 44.1737 9.84V13.5H43.1037V10.035C43.1037 9.745 43.0037 9.52167 42.8037 9.365C42.6037 9.20833 42.347 9.13 42.0337 9.13C41.8237 9.13 41.6237 9.16667 41.4337 9.24C41.247 9.31 41.0953 9.41667 40.9787 9.56C40.8653 9.7 40.8087 9.87667 40.8087 10.09V13.5H39.7387ZM48.122 13.5V6.27H50.627C51.1437 6.27 51.6054 6.35833 52.012 6.535C52.422 6.71167 52.7437 6.97167 52.977 7.315C53.2137 7.65833 53.332 8.08 53.332 8.58C53.332 9.06 53.2237 9.47 53.007 9.81C52.7937 10.1467 52.4937 10.405 52.107 10.585C51.7237 10.7617 51.2787 10.85 50.772 10.85H49.212V13.5H48.122ZM49.207 9.975H50.742C51.202 9.975 51.577 9.84333 51.867 9.58C52.157 9.31333 52.302 8.96 52.302 8.52C52.302 8.07333 52.152 7.73167 51.852 7.495C51.552 7.255 51.1687 7.135 50.702 7.135H49.207V9.975ZM55.7059 13.6C55.3725 13.6 55.0759 13.54 54.8159 13.42C54.5592 13.3 54.3575 13.1267 54.2109 12.9C54.0642 12.6733 53.9909 12.4 53.9909 12.08C53.9909 11.5067 54.1925 11.0783 54.5959 10.795C55.0025 10.5117 55.6525 10.3617 56.5459 10.345L57.3959 10.32V9.945C57.3959 9.64833 57.3075 9.415 57.1309 9.245C56.9542 9.075 56.6809 8.99167 56.3109 8.995C56.0375 8.995 55.7925 9.05833 55.5759 9.185C55.3592 9.31167 55.2175 9.52 55.1509 9.81H54.2259C54.2459 9.46667 54.3442 9.17833 54.5209 8.945C54.7009 8.70833 54.9475 8.53 55.2609 8.41C55.5742 8.29 55.9409 8.23 56.3609 8.23C56.8342 8.23 57.2225 8.295 57.5259 8.425C57.8292 8.55167 58.0542 8.73833 58.2009 8.985C58.3509 9.23167 58.4259 9.53167 58.4259 9.885V13.5H57.5159L57.4359 12.55C57.2425 12.9467 56.9975 13.2217 56.7009 13.375C56.4042 13.525 56.0725 13.6 55.7059 13.6ZM56.0409 12.855C56.2042 12.855 56.3659 12.8267 56.5259 12.77C56.6859 12.71 56.8309 12.63 56.9609 12.53C57.0909 12.4267 57.1942 12.3117 57.2709 12.185C57.3509 12.0583 57.3925 11.9283 57.3959 11.795V10.94L56.6959 10.955C56.3392 10.9583 56.0359 10.995 55.7859 11.065C55.5392 11.135 55.3492 11.2433 55.2159 11.39C55.0859 11.5367 55.0209 11.7317 55.0209 11.975C55.0209 12.2517 55.1159 12.4683 55.3059 12.625C55.4992 12.7783 55.7442 12.855 56.0409 12.855ZM59.7973 13.5V8.33H60.8423V9.075C60.9256 8.935 61.0373 8.80333 61.1773 8.68C61.3206 8.55667 61.4956 8.45667 61.7023 8.38C61.9123 8.30333 62.1539 8.265 62.4273 8.265C62.7506 8.265 63.0489 8.33 63.3223 8.46C63.5989 8.58667 63.8206 8.78667 63.9873 9.06C64.1539 9.33 64.2373 9.68 64.2373 10.11V13.5H63.1673V10.225C63.1673 9.855 63.0673 9.58 62.8673 9.4C62.6706 9.22 62.4156 9.13 62.1023 9.13C61.8923 9.13 61.6923 9.165 61.5023 9.235C61.3123 9.305 61.1589 9.41167 61.0423 9.555C60.9256 9.695 60.8673 9.87167 60.8673 10.085V13.5H59.7973ZM67.8478 13.6C67.3578 13.6 66.9261 13.495 66.5528 13.285C66.1795 13.0717 65.8878 12.7683 65.6778 12.375C65.4711 11.9817 65.3678 11.5133 65.3678 10.97C65.3678 10.4333 65.4628 9.96 65.6528 9.55C65.8428 9.13667 66.1178 8.81333 66.4778 8.58C66.8378 8.34667 67.2711 8.23 67.7778 8.23C68.2745 8.23 68.6945 8.33667 69.0378 8.55C69.3811 8.76333 69.6411 9.06333 69.8178 9.45C69.9945 9.83333 70.0828 10.2867 70.0828 10.81V11.165H66.4428C66.4395 11.475 66.4895 11.7533 66.5928 12C66.6961 12.2433 66.8495 12.4367 67.0528 12.58C67.2595 12.72 67.5161 12.79 67.8228 12.79C68.1328 12.79 68.3995 12.72 68.6228 12.58C68.8495 12.44 68.9978 12.2317 69.0678 11.955H70.0578C69.9978 12.3083 69.8561 12.6083 69.6328 12.855C69.4095 13.1017 69.1411 13.2883 68.8278 13.415C68.5145 13.5383 68.1878 13.6 67.8478 13.6ZM66.4428 10.47H69.0628C69.0628 10.2 69.0161 9.955 68.9228 9.735C68.8295 9.51167 68.6861 9.33667 68.4928 9.21C68.3028 9.08 68.0628 9.015 67.7728 9.015C67.4761 9.015 67.2295 9.08667 67.0328 9.23C66.8361 9.37333 66.6878 9.55667 66.5878 9.78C66.4911 10.0033 66.4428 10.2333 66.4428 10.47ZM72.7012 13.57C72.3945 13.57 72.1478 13.53 71.9612 13.45C71.7778 13.37 71.6378 13.2633 71.5412 13.13C71.4445 12.9933 71.3795 12.84 71.3462 12.67C71.3162 12.4967 71.3012 12.3183 71.3012 12.135V6.07H72.3562V12.025C72.3562 12.265 72.4028 12.4483 72.4962 12.575C72.5928 12.7017 72.7395 12.7733 72.9362 12.79L73.2062 12.8V13.48C73.1228 13.5067 73.0362 13.5283 72.9462 13.545C72.8595 13.5617 72.7778 13.57 72.7012 13.57Z" fill="#7478E7"/>
</g>
<rect x="0.5" y="0.5" width="86" height="18" rx="9" stroke="#7478E7" stroke-opacity="0.42"/>
<defs>
<clipPath id="clip0_439_1401">
<rect width="87" height="19" rx="9.5" fill="white"/>
</clipPath>
</defs>
</svg>
